<?xml version="1.0" standalone="no"?>
<!DOCTYPE svg PUBLIC "-//W3C//DTD SVG 20010904//EN"
 "http://www.w3.org/TR/2001/REC-SVG-20010904/DTD/svg10.dtd">
<svg version="1.0" xmlns="http://www.w3.org/2000/svg"
 width="1007.000000pt" height="980.000000pt" viewBox="0 0 1007.000000 980.000000"
 preserveAspectRatio="xMidYMid meet">

<g transform="translate(0.000000,980.000000) scale(0.100000,-0.100000)"
fill="#000000" stroke="none">
<path d="M4866 9789 c-348 -31 -674 -163 -888 -358 -116 -106 -228 -272 -228
-336 0 -22 37 -96 126 -251 70 -120 160 -277 200 -348 41 -71 73 -130 72 -131
-2 -1 -59 -30 -128 -64 -248 -125 -438 -261 -644 -461 -723 -702 -1045 -1800
-830 -2830 76 -361 228 -721 432 -1020 177 -259 482 -566 679 -684 347 -207
900 -320 1478 -303 484 15 860 94 1170 246 164 80 261 155 456 350 236 236
385 442 527 726 487 978 377 2237 -276 3150 -93 130 -184 234 -319 365 -141
138 -220 203 -372 304 -130 87 -127 91 53 56 337 -65 655 -214 972 -457 102
-77 124 -87 173 -73 66 17 98 77 80 145 -12 43 -100 116 -293 243 -306 201
-636 335 -927 377 -63 9 -131 19 -153 23 l-38 7 226 155 c125 85 277 190 339
232 349 240 329 223 329 283 0 74 -62 132 -128 122 -20 -3 -88 -43 -161 -93
-71 -48 -249 -170 -396 -272 -148 -101 -270 -182 -272 -180 -2 2 41 82 95 178
67 116 100 184 100 204 0 65 -112 231 -229 337 -220 202 -528 324 -906 359
-124 11 -177 11 -319 -1z m434 -255 c211 -33 399 -108 564 -226 79 -56 168
-145 195 -196 7 -13 -18 -64 -110 -222 -65 -113 -120 -209 -122 -215 -2 -6
-57 3 -133 22 -270 68 -456 88 -744 80 -229 -6 -348 -22 -559 -73 -79 -19
-144 -34 -146 -32 -1 2 -23 41 -47 88 -25 47 -77 140 -117 207 -39 68 -71 125
-71 129 0 16 43 63 52 58 7 -5 8 -2 3 6 -12 19 128 147 224 203 45 27 110 60
144 74 34 14 71 29 82 34 74 32 257 67 430 83 67 6 255 -5 355 -20z m60 -1009
c142 -20 330 -63 330 -77 0 -5 -12 -7 -27 -4 -194 43 -921 46 -1207 5 -114
-16 -101 6 21 34 291 67 594 82 883 42z m113 -296 c159 -12 209 -23 344 -79
264 -110 499 -268 727 -490 405 -394 670 -914 771 -1514 100 -595 19 -1182
-235 -1701 -137 -281 -266 -460 -490 -686 -168 -169 -247 -230 -385 -299 -596
-296 -1730 -299 -2330 -4 -131 64 -203 117 -351 258 -434 413 -702 952 -786
1581 -23 175 -28 501 -9 660 67 571 254 1044 579 1465 134 174 375 397 568
528 165 111 443 243 551 261 218 37 695 46 1046 20z"/>
<path d="M4973 7010 c-44 -26 -53 -48 -53 -123 l0 -65 -67 -21 c-312 -96 -481
-421 -398 -763 32 -130 121 -245 232 -301 60 -31 171 -67 313 -102 301 -74
387 -150 398 -351 10 -179 -76 -311 -237 -365 -89 -30 -216 -23 -295 15 -116
57 -179 153 -195 297 -8 75 -12 86 -40 111 -17 15 -42 30 -56 34 -34 9 -93
-15 -117 -47 -44 -59 -30 -198 32 -321 82 -161 199 -266 356 -318 67 -23 74
-32 74 -103 0 -46 25 -104 51 -118 28 -14 102 -14 126 2 30 18 51 68 59 138
l7 61 41 11 c141 37 305 175 369 310 51 108 61 151 61 279 0 129 -13 197 -56
285 -73 149 -190 218 -513 300 -291 74 -381 153 -393 347 -7 119 23 204 96
278 80 80 146 105 272 105 81 -1 103 -4 152 -27 119 -55 194 -157 204 -277 8
-83 12 -97 40 -130 30 -36 78 -48 128 -31 68 22 94 128 61 250 -51 193 -213
366 -402 430 l-73 25 0 68 c0 65 -2 71 -34 103 -40 40 -92 46 -143 14z"/>
<path d="M3692 6050 c-18 -11 -37 -32 -42 -46 -6 -14 -10 -135 -10 -271 l0
-245 34 -34 c29 -29 41 -34 81 -34 40 0 52 5 81 34 l34 34 0 257 0 257 -34 34
c-41 41 -92 46 -144 14z"/>
<path d="M6253 6051 c-17 -11 -37 -29 -42 -40 -7 -12 -11 -113 -11 -271 l0
-252 34 -34 c28 -28 41 -34 78 -34 24 0 54 7 66 16 48 34 52 56 52 318 l0 246
-28 31 c-37 41 -102 50 -149 20z"/>
<path d="M8613 7165 c-80 -22 -132 -52 -199 -117 -110 -105 -159 -239 -152
-412 4 -88 23 -176 147 -676 78 -316 143 -580 145 -585 3 -7 -27 -11 -83 -11
-115 0 -186 -28 -257 -99 -57 -57 -94 -121 -118 -205 -8 -30 -47 -316 -86
-634 -68 -553 -72 -582 -99 -630 -16 -28 -153 -294 -305 -592 l-276 -541 -19
-134 c-11 -74 -34 -253 -51 -399 -17 -146 -69 -573 -115 -950 -101 -825 -100
-808 -83 -839 31 -57 36 -58 513 -116 1475 -181 1396 -173 1439 -153 57 25 44
-49 176 1023 27 226 61 504 75 618 14 115 32 235 40 268 9 33 56 157 106 276
50 119 98 237 108 262 10 25 69 172 131 326 242 603 340 895 391 1170 32 172
33 415 1 574 -45 220 -122 441 -300 851 -94 218 -238 557 -439 1035 -174 414
-203 474 -274 549 -122 130 -270 180 -416 141z m172 -244 c54 -24 117 -98 146
-169 109 -275 378 -909 544 -1282 298 -673 377 -966 347 -1288 -30 -325 -163
-715 -612 -1797 -148 -357 -141 -334 -177 -625 -8 -61 -10 -65 -33 -63 -50 4
-1525 185 -1528 188 -1 1 17 159 40 351 l44 349 306 600 306 600 26 190 c14
105 44 343 66 530 57 483 58 494 87 547 54 99 177 104 265 11 38 -39 98 -159
98 -193 0 -16 -43 -376 -95 -801 -52 -424 -95 -786 -95 -805 0 -102 161 -143
214 -54 12 22 32 145 72 457 74 581 111 887 130 1081 l17 162 -23 63 c-12 34
-33 82 -47 107 -23 42 -72 233 -329 1280 -39 158 -56 246 -56 295 -3 202 139
334 287 266z m-945 -5321 c335 -41 1022 -125 1113 -136 46 -6 48 -7 43 -33 -3
-14 -35 -269 -71 -566 -36 -297 -67 -545 -69 -551 -3 -7 -33 -7 -102 2 -479
57 -1450 178 -1452 180 -3 2 119 1012 135 1117 6 37 7 38 37 33 17 -3 182 -24
366 -46z"/>
<path d="M1280 7116 c-85 -18 -149 -55 -220 -126 -99 -98 -78 -56 -370 -750
-89 -212 -235 -556 -325 -765 -90 -209 -185 -441 -213 -515 -190 -514 -198
-814 -36 -1345 75 -248 192 -552 543 -1413 61 -149 115 -292 121 -316 5 -24
14 -108 20 -187 6 -79 15 -164 20 -189 8 -43 26 -179 70 -540 87 -718 111
-895 126 -918 27 -41 73 -53 156 -42 40 6 457 57 927 115 851 104 854 104 882
131 15 15 31 40 34 55 4 16 -54 527 -130 1152 l-137 1122 -63 132 c-35 72
-151 299 -258 505 -107 205 -218 419 -246 475 l-51 103 -70 577 c-41 335 -79
605 -90 643 -25 86 -88 182 -146 223 -76 54 -129 70 -225 70 l-86 0 78 311
c109 441 190 771 205 841 18 81 17 218 -1 289 -49 189 -194 334 -364 366 -65
12 -80 12 -151 -4z m155 -245 c48 -21 90 -68 118 -131 16 -34 21 -66 20 -130
0 -75 -15 -145 -125 -590 -70 -278 -150 -602 -178 -720 -36 -148 -63 -237 -87
-285 -65 -129 -67 -140 -43 -363 11 -108 47 -411 80 -672 109 -868 102 -826
144 -855 24 -18 95 -20 129 -4 13 6 32 24 42 41 24 42 34 -52 -142 1367 -34
279 -35 297 -20 337 25 69 81 147 127 179 36 25 53 30 101 30 50 0 62 -4 89
-30 64 -61 53 -3 145 -765 l65 -535 120 -240 c65 -132 152 -303 193 -380 40
-77 124 -239 187 -360 l114 -220 43 -340 c23 -187 43 -348 43 -357 0 -12 -11
-18 -43 -23 -148 -20 -1511 -185 -1512 -182 -1 1 -10 70 -19 153 -18 169 -35
229 -121 434 -58 137 -96 230 -249 607 -416 1029 -478 1333 -361 1788 54 210
119 375 425 1075 139 320 304 710 381 904 70 175 106 228 182 265 52 26 99 26
152 2z m1198 -5303 c13 -74 140 -1119 136 -1122 -4 -4 -90 -15 -954 -121 -291
-35 -545 -66 -563 -69 -20 -3 -35 0 -37 7 -3 7 -11 70 -19 142 -9 72 -36 297
-61 500 -59 479 -62 505 -44 505 19 0 1481 179 1499 184 33 8 38 5 43 -26z"/>
</g>
</svg>
